<?xml version="1.0" encoding="UTF-8"?>
<!-- Created with Inkscape (http://www.inkscape.org/) -->
<svg width="89.387mm" height="79.375mm" version="1.1" viewBox="0 0 89.387 79.375" xmlns="http://www.w3.org/2000/svg" xmlns:cc="http://creativecommons.org/ns#" xmlns:dc="http://purl.org/dc/elements/1.1/" xmlns:rdf="http://www.w3.org/1999/02/22-rdf-syntax-ns#">
 <metadata>
  <rdf:RDF>
   <cc:Work rdf:about="">
    <dc:format>image/svg+xml</dc:format>
    <dc:type rdf:resource="http://purl.org/dc/dcmitype/StillImage"/>
    <dc:title/>
   </cc:Work>
  </rdf:RDF>
 </metadata>
 <g transform="translate(211.76 -15.408)">
  <path d="m-204.72 15.908c-3.5907-2.79e-4 -6.5409 2.9442-6.5409 6.5389v65.298c0 3.5946 2.9503 6.5389 6.5409 6.5389h75.305c3.5869 0 6.5409-2.9401 6.5409-6.5331v-65.297c0-3.5928-2.9482-6.5406-6.5409-6.5409z" fill="#fff" fill-rule="evenodd" stroke="#808080" stroke-opacity=".50196" stroke-width=".99954"/>
  <path class="cls-5" d="m-128.03 78.911h0.32782v1.3822h0.34556v-1.3822h0.32338v-0.30124h-1.0012zm2.7644-0.30124h-0.35441l-0.37212 1.0233-0.38984-1.0233h-0.34998l-0.24809 1.6834h0.32784l0.15957-1.0322 0.3987 1.0322h0.19492l0.40314-1.0632 0.1772 1.0632h0.35883z" fill="#6d6167" stroke-width=".44301"/>
  <g transform="translate(.017132)" stroke-width=".44301">
   <path class="cls-2" d="m-206.74 62.471v-40.061a2.06 2.06 0 0 1 2.0511-2.0556h35.29a1.8252 1.8252 0 0 1-1.0189 0.99676 7.0881 7.0881 0 0 1-1.2404 0.36326 8.7317 8.7317 0 0 0-1.0544 0.31453 3.4111 3.4111 0 0 0-0.97905 0.5006 2.9726 2.9726 0 0 0-0.443 0.46959 3.9871 3.9871 0 0 0-0.28796 0.44301 2.4144 2.4144 0 0 0-0.19492 0.27023 5.9806 5.9806 0 0 0 0.30567-1.998c-0.0576 0.35883-0.91259 1.1607-1.4088 1.586a2.0821 2.0821 0 0 0-0.88601 1.772 1.2138 1.2138 0 0 0-0.26581 0.11074c-0.3854 0.29238-0.57591 0.44301-1.01 0.33226a2.9859 2.9859 0 0 1-0.412-0.18163l-0.15939-0.08417a2.658 2.658 0 0 0 0.98348 0.95689 0.59363 0.59363 0 0 1 0.2215 0.18606c-0.062 0.14177-0.31011 0.65122-0.34555 0.73096a1.1119 1.1119 0 0 0 0.0886 1.0544c0.14617 0.23036 0.47401 0.79298 0.47401 0.79298s0.0797 0.08861 0.15069 0.15062a3.265 3.265 0 0 1-0.0886-0.76197 0.88601 0.88601 0 0 1 0.51833-0.73096c0 0.07531 0 0.19492-0.0266 0.35884a1.0987 1.0987 0 0 0 0.0753 0.49617 2.658 2.658 0 0 0 0.14182 0.27466 0.65565 0.65565 0 0 1-0.0753 0.70438 1.4974 1.4974 0 0 1-0.23923 0.27466c-0.0975 0.08861-0.15052 0.11518-0.1772 0.2215a1.1297 1.1297 0 0 0 0.25251 0.15062l0.37213 0.14177c0.17278 0.06202 0.39428 0.15504 0.39428 0.33225a0.27466 0.27466 0 0 1-0.12843 0.19492c-0.14617 0.07088-0.28351 0.14177-0.54046 0.26137a2.3036 2.3036 0 0 1-0.30125 0.15504 2.8485 2.8485 0 0 1-0.49173 0.11962 15.297 15.297 0 0 1-2.4011 0.28795 1.329 1.329 0 0 1-0.80185-0.17277 4.1155 4.1155 0 0 0-2.277-0.49617 9.8037 9.8037 0 0 0-1.998 0.44301 4.306 4.306 0 0 1-1.4132 0.21707 1.1474 1.1474 0 0 1-0.62907-0.13291s-0.12842-0.10188-0.65564-0.06646a5.2319 5.2319 0 0 0-0.67338 0.06646 2.4188 2.4188 0 0 1-0.15069 0.20821 0.88601 0.88601 0 0 1-0.2215-0.13289 1.4796 1.4796 0 0 0-0.94804-0.2215 1.3822 1.3822 0 0 1-0.443-0.02657 3.0346 3.0346 0 0 0 0.10632-0.51832 0.32782 0.32782 0 0 0-0.0665-0.28352c-0.10197-0.1772-0.27466-0.44301-0.27466-0.44301s0-0.08417-0.15505-0.11076a0.99676 0.99676 0 0 1-0.38542-0.21707 0.97461 0.97461 0 0 0-0.69552-0.27023 0.3677 0.3677 0 0 1-0.33225-0.07975 0.61578 0.61578 0 0 0-0.60692 0.0443 1.6746 1.6746 0 0 1-0.80628 0.14177l-5.1832 0.13289a0.3677 0.3677 0 0 1-0.24809-0.11962c-0.0487-0.03987-0.13729-0.13733-0.35883-0.03101l-0.031 0.66894h-0.54491s-0.13729-0.33226-0.59362-0.15504c-0.0266 0.16834-0.0399 0.23922-0.0399 0.23922l-0.0444 0.07975a1.329 1.329 0 0 0-0.29239 0.04872 5.7281 5.7281 0 0 0 0.0266 0.78412l0.29237 0.0576 0.0576 0.5006a0.69552 0.69552 0 0 0 0.58033 0.28352c0.20379 0 0.44302-0.04872 0.59807 0.20821a9.0728 9.0728 0 0 0 0.96133 1.2581c0.21706 0.20378 0.50502 0.59363 2.2726 0.93031a11.664 11.664 0 0 0 1.8385 0.1772c0.0931 0.08861 0.68667 0.78412 0.68667 0.78412s0.0842 0.19935 0.49616 0.27466a21.123 21.123 0 0 0 2.2859 0.42086c0.25251 0.02215 0.33226 0.06202 0.56262-0.12847a0.83728 0.83728 0 0 0 0.36327-0.49617l0.031-0.2215 0.0931-0.06645a4.8731 4.8731 0 0 0 1.0632-0.88601 1.803 1.803 0 0 0 0.0975 0.23036c0.031 0.04872 0.0576 0.18163 0.443 0.18606a4.2529 4.2529 0 0 1 1.8916 0.44301 2.8707 2.8707 0 0 1 0.78413 0.54933 2.8131 2.8131 0 0 0 1.7942 0.79298c0.93918 0.08417 1.8784 0.14619 2.2593 0.19049a1.6879 1.6879 0 0 0 0.95247-0.11518 0.58034 0.58034 0 0 0 0.443-0.53161v-0.42086c0.0266-0.11962 0.0355-0.1772 0.0355-0.1772a0.40757 0.40757 0 0 1 0.26137 0c0.20822 0.07975 2.3214 0.82842 2.3214 0.82842s0.21706-0.03545 0.14181-0.3677c-0.0753-0.33225-0.0931-0.56705-0.0931-0.56705a0.17277 0.17277 0 0 1 0.1594-0.21707 2.977 2.977 0 0 1 0.78413 0.11518 4.4921 4.4921 0 0 0 1.3644 0c0.10632-0.02659 0.25251-0.07088 0.42087-0.12847 0.31452-0.09746 0.35439-0.15505 0.443-0.09303a1.9094 1.9094 0 0 1 0.12407 0.80627 0.83285 0.83285 0 0 0 0.23479 0.56705c0.21265 0.23036 1.4353 1.5151 1.4353 1.5151l0.44302 0.49617a0.85943 0.85943 0 0 0 0.61134 0.29238 4.5054 4.5054 0 0 1 0.56262 0.11962 1.0854 1.0854 0 0 0 0.74425-0.08417 0.88601 0.88601 0 0 1 0.70438-0.04872c0.39428 0.09746 1.8916 0.41643 2.0954 0.44301l0.1152 0.25251 0.0399 0.11962s0.12407 0.36326 0.19049 0.49174c0.0665 0.12847 0.54047 1.0189 0.54047 1.0189s-0.37655 0.19935-1.2493 0.56262a22.979 22.979 0 0 0-8.4526 6.428 0.54047 0.54047 0 0 0-0.0532 0.06645s-1.0056 1.1873-1.0588 2.0733a1.2493 1.2493 0 0 0 0.30567 0.67337c0.26137 0.34554 0.49174 0.69995 0.77968 0.81513 0.17278 0.07975 0.18164 0.15504 1.2094 0.18163l1.3423 0.03545a4.3193 4.3193 0 0 0 1.1297-0.14619c0.66008-0.1772 1.0189-0.27023 1.174-0.30568 0.15505-0.03545 0.46516-0.13291 1.1164-0.3677 0.443-0.17277 3.3137-1.2183 5.9584-0.91259l0.11955 0.1772s0.0531 0.12404 0.38984 0.19049a11.961 11.961 0 0 1 2.3745 0.96575 3.101 3.101 0 0 1 0.69552 0.58477c0.19935 0.24365 0.50502 0.53604 0.97905 1.1031a8.7051 8.7051 0 0 1 0.55376 0.74425 6.4236 6.4236 0 0 0 0.50502 0.63793 0.69109 0.69109 0 0 1 0.17719 0.36326 0.81956 0.81956 0 0 0 0.25253 0.5006c0.18605 0.18606 0.33668 0.39871 0.58033 0.11518 0.0487-0.11962 0.0708-0.06202 0.0753-0.79298 0-0.51832 0-0.85057 0.10197-0.95689a0.84171 0.84171 0 0 0 0.10632-0.66008 0.5449 0.5449 0 0 0-0.34554-0.52275 1.1917 1.1917 0 0 0-0.13294-0.88601 0.48288 0.48288 0 0 0-0.31009-0.16834 1.1075 1.1075 0 0 0-0.62466-0.71767c-0.26136-0.16392-0.443-0.2215-0.81512-0.96132a6.4457 6.4457 0 0 1-0.24809-0.6335c0-0.02657 0.23923-0.2215 0.23037-1.0101 0.23036 0.13733 0.46958 0.27466 0.70881 0.39428l1.5594 0.78855a18.456 18.456 0 0 0 3.9029 1.4575l0.66452 0.13733a0.69995 0.69995 0 0 1 0.38984 0.18163 10.389 10.389 0 0 0 1.0278 0.80627 4.5098 4.5098 0 0 0 1.4619 0.52275 3.7523 3.7523 0 0 1 1.329 0.36326s2.1353 1.0987 2.9238 1.4531a30.647 30.647 0 0 1 3.1276 1.8473l1.1119 0.69109c0.0886 0.06202 0.30125 0.23922 0.72654 0.62464 0.42528 0.38542 1.2537 1.1164 1.2537 1.1164l0.14182 0.1772h-0.39871l-0.0708 0.54933s0.886 0.60692 1.5239 1.0809a12.231 12.231 0 0 1 1.5816 1.4796c0.25251 0.23479 0.886 0.81956 1.2537 1.1695 0 0 0.38541 0.37212 0.27023 0.50503a1.6391 1.6391 0 0 0-0.54047 0.9879h-69.698a2.06 2.06 0 0 1-2.0511-2.0423z" fill="#202224"/>
   <path class="cls-3" d="m-170.19 23.508z" fill="#fff"/>
   <path class="cls-2" d="m-191.74 34.335s-0.3987-0.09303-0.47401-0.11962a0.62907 0.62907 0 0 1-0.35883-0.19935 1.0278 1.0278 0 0 1-0.40758-0.53161c-0.0665-0.27024-0.13294-0.5006-0.13294-0.5006a1.1651 1.1651 0 0 1 0.40314-0.0443h0.21708a1.71 1.71 0 0 0 0.19049 0.40314 1.1961 1.1961 0 0 1 0.27466 0.40314 0.47845 0.47845 0 0 0 0.15069 0.25694 0.25251 0.25251 0 0 1 0.12842 0.24365 0.5449 0.5449 0 0 1 8e-3 0.08861z" fill="#202224"/>
   <path class="cls-2" d="m-162.23 47.342c-0.12842 0.13289-0.18607 0.21707-0.34997 0.40756a22.328 22.328 0 0 1-2.8618-0.07088c0-0.18163 0.1373-0.17277 0.40314-0.25694a17.166 17.166 0 0 0 2.5296-1.1164 5.3161 5.3161 0 0 1 0.54491-0.33226l0.22593 0.10632v0.11076l-0.14181 0.18606c-0.20823 0.24365-0.21708 0.36326-0.21265 0.47402a0.55819 0.55819 0 0 1-0.13729 0.49174z" fill="#202224"/>
   <path class="cls-4" d="m-127.42 62.471a2.06 2.06 0 0 1-2.0511 2.0511h-3.3934a0.74868 0.74868 0 0 0 0.34998-0.33225 6.0913 6.0913 0 0 0 0.35439-1.4088 0.60692 0.60692 0 0 0-0.2215-0.40314 2.4631 2.4631 0 0 1-0.88602-0.88601c-0.19935-0.39428-0.31453-0.64679-0.31453-0.64679a1.0411 1.0411 0 0 0 0.21708-0.84171 2.8131 2.8131 0 0 0-0.19049-0.69995 4.244 4.244 0 0 0-0.81956-1.6081 0.68666 0.68666 0 0 1-0.17278-0.2658c-0.0221-0.03987 0-0.07531-0.20378-0.1772a1.2847 1.2847 0 0 0-0.66008-0.16834c-0.16392 0.20821-0.34112 0.40757-0.34112 0.40757l-0.41643-0.05316c-0.0931 0-0.16834-0.06202-0.443 0.12404l-0.2658 0.16834-0.1373-0.09303a18.721 18.721 0 0 1-1.9537-1.7322c-1.4176-1.3778-2.658-2.8707-2.658-2.8707a13.463 13.463 0 0 0-1.3955-1.5904 9.1747 9.1747 0 0 0-2.3081-1.4088c-0.24809-0.10632-0.23036-0.18163-3.0479-0.62464a2.7201 2.7201 0 0 1-1.329-0.8107c-0.56706-0.59363-2.2416-1.8296-3.1985-2.7378 0 0-1.236-1.0499-2.1885-1.8872-1.772-1.4974-2.658-2.0998-2.658-2.0998a3.5086 3.5086 0 0 1-0.86385-1.7454 5.0015 5.0015 0 0 0-0.95247-1.8606 7.252 7.252 0 0 0-1.9315-1.4265 3.7788 3.7788 0 0 1-0.85942-0.59806 2.7156 2.7156 0 0 0 0.0221-0.52718c-0.0355-0.38542-0.0974-1.1562-0.1373-1.2404l-0.44302-0.27466v-0.44301l0.30567-0.24365c0.0797-0.08417 0.16836-0.07531 0.14182-0.40314-0.0266-0.32782 0-0.68666 0-0.68666s0.0355-0.21264-0.24365-0.5449c-0.2791-0.33225-1.2803-1.803-1.7189-2.4055 0 0-0.22594-0.30568-0.31011-0.40757a0.57148 0.57148 0 0 0-0.38984-0.2215l-0.57149-0.15062a0.5892 0.5892 0 0 0-0.36769 0.0443 0.52275 0.52275 0 0 1-0.38984 0.04872c-0.18607-0.0443-0.61579-0.16834-0.61579-0.16834-0.1018-0.12847-0.3411-0.44301-0.443-0.60692a0.62464 0.62464 0 0 0-0.23036-0.19935l-0.5582-0.34997-1.2316 0.34554a0.77083 0.77083 0 0 1-0.14182 0.03545h-0.11955l-0.0754-0.81513 0.6778-0.50946a8.0671 8.0671 0 0 0 0.71768-0.58477l0.39426-0.37656a7.1501 7.1501 0 0 1-1.329-0.06202 0.44301 0.44301 0 0 1-0.11067-0.05316l0.14617-0.15504c1.5195-1.4796 1.6568-2.3657 1.6967-2.658a2.3435 2.3435 0 0 1-1.1563 0.55819c-0.36769 0.0576-0.61134 0.1019-0.78855 0.13733 0.94361-0.91702 1.1075-2.3967 1.1341-3.0036h38.985a2.06 2.06 0 0 1 2.0511 2.0556z" fill="#ff9e18"/>
   <path class="cls-2" d="m-162.62 69.306-1.329 3.1808-1.3955-3.1808h-1.4619l-1.3866 3.1365-1.329-3.1365h-2.215l2.7555 6.2464h1.3955l1.4088-3.1453 1.3866 3.1453h1.4929l2.7334-6.2464zm31.01 0v2.215h-3.8276v-2.215h-2.1087v6.2464h2.1353v-2.4144h3.8276v2.4144h2.1264v-6.2464zm-26.425 0-4.1953 6.2464h2.3213l2.6005-4.0225 2.5783 4.0225h2.3922l-4.0845-6.2464zm-31.453 0-2.3612 3.7966-2.3391-3.801h-2.4188l3.9472 6.2464h1.4575l4.0934-6.2464zm35.485 0v1.6391h2.7245v4.6073h2.1397v-4.6073h2.1441l1.0854-1.6391zm-43.49 0.10189a2.4277 2.4277 0 0 0-0.73981-0.10189h-4.7047c-1.081 0-1.7499 0.54047-1.7499 1.4132v3.4156a1.2936 1.2936 0 0 0 0.73096 1.1828l0.0886 0.04873 1.329-1.329v-3.101h3.9871v2.9637h-2.9548l-1.648 1.6436h4.944c1.0411 0 1.772-0.58034 1.772-1.4176v-3.2384l-0.97904-1.4752zm57.29-0.10189h-4.2662a2.1486 2.1486 0 0 0-0.33668 0h-0.0665l-0.18606 0.28352-1.1607 1.772v2.7422c0 0.83728 0.71766 1.4176 1.7499 1.4176h4.2662c1.0056 0 1.772-0.60692 1.772-1.4176v-1.0721h-2.1397v0.84614h-3.5441v-2.9637h3.5441v0.72653h2.1397v-0.9436c-0.0266-0.83285-0.7221-1.391-1.772-1.391zm-47.025 1.5815v4.687h6.6451v-1.6436h-4.5054v-0.82842h3.0257v-1.4309h-3.0257v-0.74425h4.4877v-1.6391h-5.5376zm15.098 1.2094v-1.4885c0-0.79298-0.61577-1.2803-1.6037-1.2803h-5.9274v6.2464h2.1264v-4.6649h3.3447a0.31453 0.31453 0 0 1 0 0.06645v0.91259a0.15505 0.15505 0 0 1 0 0.03101 0.25251 0.25251 0 0 1-0.11955 0h-2.2593v1.2581l2.6226 2.3479h2.9238l-2.689-2.3435c0.76197-0.0089 1.5815-0.37656 1.5815-1.1075z" fill="#202224"/>
   <path class="cls-4" d="m-190.24 84.315h4.5098v-2.1309h-4.5098v-1.1075h6.6894v-2.4454h-9.879v9.3031h9.3031l1.6746-2.4277h-7.7881zm14.057-5.6882-6.2552 9.3031h3.4643l3.8763-5.9673 3.8453 5.9983h3.544l-6.0913-9.3031zm-25.517 0h-2.9681v9.3031h9.8082v-2.4055h-6.84zm57.374 6.8932h-5.7591v-6.8932h-2.9637v6.8799c0 2.0245 0.98349 2.4188 2.6802 2.4188h6.304c1.71 0 2.7024-0.39428 2.7024-2.4188v-6.8799h-2.9682zm7.8279 0v-1.2759h4.0889v-2.2771h-4.0889v-1.0322h7.0128v-2.3214h-9.91v9.3031h10.008v-2.4011zm-20.064-4.6028 1.5992-2.3125h-9.4006c-1.8208 0-2.8751 0.3987-2.8751 2.4365v4.8731l1.267 1.834a5.0857 5.0857 0 0 0 1.5904 0.19492h6.5255c1.8207 0 2.8751-0.39871 2.8751-2.4365v-3.4998h-5.5996l-1.5594 2.2593h4.089v1.2714h-6.0382v-4.6028z" fill="#ff9e18"/>
  </g>
 </g>
</svg>
